<svg width="48" height="48" viewBox="0 0 48 48" fill="none" xmlns="http://www.w3.org/2000/svg">
<g id="SvgjsG2062" filter="url(#filter0_d_16_2)">
<g id="Group">
<path id="Vector" d="M25.1854 13.4732C25.5882 13.0704 25.8111 12.5346 25.8111 11.9628C25.8111 10.7833 24.851 9.82671 23.675 9.82671C22.4991 9.82671 21.5389 10.7869 21.5389 11.9628C21.5389 12.5346 21.7619 13.0704 22.1647 13.4732L29.4576 20.7697L27.9472 22.2801L20.6543 14.9835C19.8811 14.2104 19.4028 13.1387 19.4028 11.9592C19.4028 9.60015 21.316 7.68701 23.675 7.68701C26.0341 7.68701 27.9472 9.60015 27.9472 11.9592C27.9472 13.1387 27.4689 14.2068 26.6958 14.98L25.1854 13.4732Z" fill="#3DD2CC"/>
<path id="Vector_2" d="M25.1854 13.4732L25.4767 13.7644C25.9585 13.2862 26.2247 12.6389 26.2247 11.9592C26.2247 10.5531 25.0811 9.40954 23.675 9.40954C22.2689 9.40954 21.129 10.5531 21.1254 11.9592C21.1254 12.6389 21.3915 13.2826 21.8733 13.7644L28.875 20.7697L27.9508 21.6939L20.9455 14.6922C20.2443 13.991 19.8164 13.0272 19.8164 11.9628C19.8164 11.8549 19.7732 11.747 19.6941 11.6715C19.615 11.596 19.5107 11.5492 19.4028 11.5492C19.2949 11.5492 19.187 11.5924 19.1115 11.6715C19.036 11.7506 18.9893 11.8549 18.9893 11.9628C18.9893 12.0707 19.0324 12.1786 19.1115 12.2541C19.1906 12.3296 19.2949 12.3763 19.4028 12.3763C19.5107 12.3763 19.6186 12.3332 19.6941 12.2541C19.7696 12.175 19.8164 12.0707 19.8164 11.9628C19.82 9.83028 21.5461 8.10774 23.675 8.10414C25.8075 8.10774 27.5301 9.83388 27.5336 11.9628C27.5336 13.0308 27.1021 13.991 26.4045 14.6922L26.6958 14.9835L26.987 14.6922L25.4767 13.1819L25.1854 13.4732L25.4767 13.7644L25.1854 13.4732L24.8941 13.7644L26.4045 15.2748C26.48 15.3503 26.5879 15.3971 26.6958 15.3971C26.8036 15.3971 26.9115 15.3539 26.987 15.2748C27.8357 14.4261 28.3608 13.2538 28.3608 11.9592C28.3608 9.36998 26.2642 7.27344 23.675 7.27344C21.0858 7.27344 18.9893 9.36998 18.9893 11.9592C18.9893 12.0671 19.0324 12.175 19.1115 12.2505C19.1906 12.326 19.2949 12.3727 19.4028 12.3727C19.5107 12.3727 19.6186 12.3296 19.6941 12.2505C19.7696 12.1714 19.8164 12.0671 19.8164 11.9592C19.8164 11.8513 19.7732 11.7434 19.6941 11.6679C19.615 11.5924 19.5107 11.5456 19.4028 11.5456C19.2949 11.5456 19.187 11.5888 19.1115 11.6679C19.036 11.747 18.9893 11.8513 18.9893 11.9592C18.9893 13.2502 19.5143 14.4261 20.363 15.2748L27.6595 22.5678C27.8213 22.7296 28.0839 22.7296 28.2457 22.5678L29.7561 21.0574C29.8316 20.9819 29.8783 20.874 29.8783 20.7661C29.8783 20.6582 29.8352 20.5503 29.7561 20.4748L22.4559 13.1819C22.1287 12.8546 21.9525 12.4267 21.9489 11.9628C21.9489 11.0134 22.722 10.2402 23.6714 10.2402C24.6208 10.2402 25.394 11.0134 25.394 11.9628C25.394 12.4267 25.2177 12.8546 24.8905 13.1819C24.8114 13.261 24.7682 13.3653 24.7682 13.4732C24.7682 13.5846 24.8114 13.6889 24.8905 13.7644L25.1854 13.4732Z" fill="#3DD2CC"/>
<path id="Vector_3" d="M32.4784 23.7904C32.8811 24.1931 33.4169 24.4161 33.9887 24.4161C35.1647 24.4161 36.1248 23.4559 36.1248 22.28C36.1248 21.1005 35.1683 20.1439 33.9923 20.1439C33.4205 20.1439 32.8847 20.3669 32.482 20.7696L25.1854 28.0626L23.675 26.5522L30.9716 19.2593C31.7448 18.4861 32.8128 18.0078 33.9923 18.0078C36.3514 18.0078 38.2645 19.921 38.2645 22.2836C38.2645 24.6463 36.3514 26.5558 33.9923 26.5558C32.8128 26.5558 31.7448 26.0775 30.9716 25.3043L32.4784 23.7904Z" fill="#3DD2CC"/>
<path id="Vector_4" d="M32.4783 23.7904L32.1871 24.0816C32.6653 24.5635 33.3126 24.8296 33.9923 24.8296C35.3984 24.8296 36.542 23.6861 36.542 22.28C36.542 20.8739 35.402 19.7303 33.9959 19.7303C33.8844 19.7303 33.7801 19.7735 33.7046 19.8526C33.6255 19.9317 33.5824 20.036 33.5824 20.1439H33.9959V19.7303C33.3162 19.7303 32.6725 19.9964 32.1906 20.4747L25.1854 27.48L24.2612 26.5558L31.2629 19.5505C31.9641 18.8529 32.9243 18.4213 33.9923 18.4213C34.1829 18.4213 34.3519 18.2883 34.3951 18.1013C34.4382 17.9143 34.3483 17.7201 34.1757 17.6374L33.9923 18.0078V18.4213C36.1248 18.4249 37.8474 20.1511 37.851 22.2836C37.8474 24.4161 36.1212 26.1386 33.9923 26.1422C32.9243 26.1422 31.9641 25.7107 31.2629 25.013L30.9716 25.3043L31.2629 25.5956L32.7732 24.0852L32.4783 23.7904L32.1871 24.0816L32.4783 23.7904L32.1871 23.4991L30.6767 25.0094C30.5149 25.1713 30.5149 25.4338 30.6767 25.5956C31.5218 26.4443 32.6977 26.9693 33.9923 26.9693C36.5815 26.9693 38.6781 24.8728 38.6781 22.2836C38.6781 19.6944 36.5815 17.5942 33.9923 17.5942C33.8017 17.5942 33.6327 17.7273 33.5895 17.9143C33.5464 18.1013 33.6363 18.2955 33.8089 18.3782L33.9923 18.0078V17.5942C32.6977 17.5942 31.5254 18.1193 30.6767 18.968L23.3837 26.2609C23.3082 26.3364 23.2615 26.4443 23.2615 26.5522C23.2615 26.6601 23.3046 26.768 23.3837 26.8435L24.8941 28.3538C25.0559 28.5157 25.3185 28.5157 25.4803 28.3538L32.7732 21.0609C33.1041 20.7337 33.5284 20.5574 33.9923 20.5574C34.1002 20.5574 34.2081 20.5143 34.2836 20.4352C34.3591 20.3561 34.4059 20.2518 34.4059 20.1439H33.9923V20.5574C34.9417 20.5574 35.7149 21.3306 35.7113 22.28C35.7113 23.2294 34.9381 24.0025 33.9887 24.0025C33.5248 24.0025 33.0969 23.8263 32.7696 23.4991C32.6905 23.42 32.5862 23.3768 32.4783 23.3768C32.3669 23.3768 32.2626 23.42 32.1871 23.4991L32.4783 23.7904Z" fill="#3DD2CC"/>
<path id="Vector_5" d="M14.8682 20.7696C14.4618 20.3669 13.9296 20.1439 13.3578 20.1439C12.1783 20.1439 11.2217 21.1041 11.2217 22.28C11.2217 23.4595 12.1783 24.4161 13.3578 24.4197C13.9296 24.4197 14.4654 24.1967 14.8682 23.794L22.1647 16.4974L23.6751 18.0078L16.3786 25.3007C15.6054 26.0739 14.5338 26.5522 13.3542 26.5522C10.9916 26.5522 9.08203 24.6391 9.08203 22.2764C9.08203 19.9173 10.9952 18.0042 13.3542 18.0042C14.5338 18.0042 15.6018 18.4825 16.375 19.2557L14.8682 20.7696Z" fill="#3DD2CC"/>
<path id="Vector_6" d="M14.8682 20.7696L15.1595 20.4783C14.6812 19.9965 14.0339 19.7304 13.3542 19.7304C11.9481 19.7304 10.8046 20.8739 10.8046 22.28C10.8046 23.6861 11.9445 24.8297 13.3542 24.8333C13.4657 24.8333 13.57 24.7901 13.6455 24.711C13.7246 24.6319 13.7678 24.5276 13.7678 24.4197H13.3542V24.8333C14.0339 24.8333 14.6776 24.5671 15.1595 24.0853L22.1647 17.08L23.0889 18.0042L16.0873 25.0095C15.386 25.7071 14.4223 26.1386 13.3578 26.1422C13.1744 26.1422 13.0162 26.2609 12.9622 26.4335C12.9083 26.6061 12.9766 26.7967 13.1277 26.8974L13.3578 26.5558V26.1422C11.2253 26.1351 9.50276 24.4125 9.49916 22.28C9.50276 20.1475 11.2253 18.425 13.3578 18.4214C14.4259 18.4214 15.386 18.8529 16.0873 19.5505L16.3785 19.2593L16.0873 18.968L14.5769 20.4783L14.8682 20.7696L15.1595 20.4783L14.8682 20.7696L15.1595 21.0609L16.6698 19.5505C16.7489 19.4714 16.7921 19.3671 16.7921 19.2593C16.7921 19.1478 16.7489 19.0435 16.6698 18.968C15.8211 18.1229 14.6488 17.5943 13.3542 17.5979C10.765 17.5979 8.66846 19.6944 8.66846 22.2836C8.66846 24.8728 10.765 26.9729 13.3542 26.9729C13.5376 26.9729 13.6958 26.8543 13.7498 26.6817C13.8037 26.509 13.7354 26.3185 13.5844 26.2178L13.3542 26.5594V26.9729C14.6452 26.9729 15.8211 26.4479 16.6698 25.5992L23.9664 18.3063C24.1282 18.1445 24.1282 17.8819 23.9664 17.7201L22.456 16.2097C22.2942 16.0479 22.0317 16.0479 21.8698 16.2097L14.5769 23.4991C14.246 23.8263 13.8217 24.0025 13.3578 24.0061C13.2499 24.0061 13.142 24.0493 13.0665 24.1284C12.991 24.2075 12.9442 24.3118 12.9442 24.4197H13.3578V24.0061C12.4084 24.0061 11.6353 23.233 11.6353 22.28C11.6353 21.3306 12.4084 20.5611 13.3578 20.5575C13.8217 20.5575 14.246 20.7337 14.5769 21.0609C14.7387 21.2227 15.0012 21.2227 15.1631 21.0609L14.8682 20.7696Z" fill="#3DD2CC"/>
<path id="Vector_7" d="M33.9924 15.3359H33.5788H33.9924V14.9224C32.2195 14.9224 30.5401 15.5517 29.2095 16.6953L29.4792 17.0081L29.7705 16.7168L29.2419 16.1882L28.9506 16.4795L29.2635 16.7492C30.407 15.4186 31.0327 13.7357 31.0327 11.9628C31.0327 7.90634 27.7351 4.6051 23.6751 4.6051C19.615 4.6051 16.3174 7.90634 16.3174 11.9628C16.3174 13.7357 16.9503 15.4151 18.0903 16.7456L18.4032 16.4759L18.1119 16.1846L17.5832 16.7133L17.8745 17.0045L18.1442 16.6917C16.8137 15.5481 15.1271 14.9224 13.3542 14.9224C9.30136 14.9224 6.00012 18.2236 6.00012 22.2801C6.00012 26.3401 9.30136 29.6377 13.3578 29.6413C13.4657 29.6413 13.5736 29.5982 13.6491 29.5191C13.7246 29.4399 13.7713 29.3357 13.7713 29.2278H13.3578V29.6413C15.1307 29.6413 16.8101 29.012 18.1406 27.8684L17.8709 27.5556L17.5796 27.8469L18.1083 28.3755L18.3996 28.0842L18.0867 27.8145C16.9431 29.1451 16.3174 30.8316 16.3174 32.6009C16.3174 36.6574 19.6186 39.9586 23.6751 39.9586C27.7351 39.9586 31.0327 36.6574 31.0327 32.6009C31.0327 32.493 30.9896 32.3852 30.9105 32.3096C30.8314 32.2341 30.7271 32.1874 30.6192 32.1874V32.6009H31.0327C31.0327 30.828 30.4034 29.1487 29.2599 27.8181L28.947 28.0878L29.2383 28.3791L29.7669 27.8505L29.4756 27.5592L29.2059 27.872C30.5365 29.0192 32.2231 29.6413 33.996 29.6413C38.0524 29.6413 41.3536 26.3401 41.3536 22.2837C41.3536 18.2236 38.0524 14.926 33.996 14.9224C33.8881 14.9224 33.7802 14.9655 33.7047 15.0447C33.6291 15.1238 33.5824 15.2281 33.5824 15.3359H33.9924V15.7495C37.5921 15.7567 40.5157 18.6803 40.5229 22.2801C40.5157 25.8798 37.5921 28.8034 33.9924 28.8106C32.4137 28.8106 30.9285 28.2568 29.7417 27.2391C29.5763 27.0989 29.3318 27.1061 29.1807 27.2607L28.6521 27.7893C28.5011 27.9404 28.4903 28.1885 28.6305 28.3503C29.6482 29.537 30.2056 31.0186 30.2056 32.5937C30.2056 32.7016 30.2488 32.8095 30.3279 32.885C30.407 32.9605 30.5113 33.0073 30.6192 33.0073V32.5937H30.2056C30.1984 36.1971 27.2748 39.1207 23.6751 39.1279C20.0754 39.1207 17.1481 36.1971 17.1445 32.5973C17.1445 31.0186 17.6983 29.5334 18.716 28.3467C18.8563 28.1813 18.8491 27.9368 18.6944 27.7857L18.1658 27.2571C18.0148 27.1061 17.7666 27.0953 17.6048 27.2355C16.4181 28.2532 14.9365 28.8106 13.3614 28.8106C13.2535 28.8106 13.1456 28.8538 13.0701 28.9329C12.9946 29.012 12.9478 29.1163 12.9478 29.2242H13.3614V28.8106C9.75807 28.8034 6.83442 25.8798 6.82723 22.2801C6.83442 18.6803 9.75807 15.7567 13.3578 15.7495C14.9365 15.7495 16.4217 16.3033 17.6084 17.321C17.7738 17.4612 18.0184 17.4505 18.1694 17.2994L18.698 16.7708C18.8491 16.6198 18.8599 16.3716 18.7196 16.2098C17.7019 15.0267 17.1445 13.5415 17.1445 11.9664C17.1517 8.36305 20.0754 5.4394 23.6751 5.43221C27.2748 5.4394 30.1984 8.36305 30.2056 11.9628C30.2056 13.5415 29.6518 15.0303 28.6377 16.2134C28.4975 16.3788 28.5047 16.6234 28.6593 16.7744L29.1879 17.303C29.339 17.4541 29.5871 17.4648 29.7489 17.3246C30.9356 16.3069 32.4173 15.7495 33.9924 15.7495C34.1002 15.7495 34.2081 15.7063 34.2836 15.6272C34.3592 15.5481 34.4059 15.4438 34.4059 15.3359H33.9924V15.7495V15.3359Z" fill="#3DD2CC"/>
<path id="Vector_8" d="M22.1647 31.0833C21.7619 31.4861 21.539 32.0219 21.539 32.5937C21.539 33.7696 22.4991 34.7298 23.6751 34.7298C24.851 34.7298 25.8112 33.7732 25.8112 32.5937C25.8112 32.0219 25.5882 31.4861 25.1855 31.0833L17.8889 23.7904L19.3993 22.28L26.6958 29.5766C27.469 30.3497 27.9473 31.4178 27.9473 32.5973C27.9473 34.9564 26.0341 36.8695 23.6751 36.8695C21.3124 36.8695 19.4029 34.9564 19.4029 32.5973C19.4029 31.4178 19.8812 30.3497 20.6543 29.5766L22.1647 31.0833Z" fill="#3DD2CC"/>
<path id="Vector_9" d="M22.1648 31.0834L21.8735 30.7921C21.3953 31.2704 21.1256 31.9177 21.1291 32.5937C21.1291 33.9998 22.2727 35.1434 23.6788 35.1434C25.0849 35.1434 26.2285 34.0034 26.2285 32.5937C26.2285 32.4823 26.1853 32.378 26.1062 32.3025C26.0271 32.2233 25.9228 32.1802 25.8149 32.1802V32.5937H26.2285C26.2285 31.9141 25.9623 31.2704 25.4841 30.7885L18.4752 23.7904L19.3994 22.8626L26.4011 29.8679C27.1023 30.5691 27.5338 31.5293 27.5338 32.5973C27.5338 32.7915 27.6669 32.957 27.8539 33.0001C28.0409 33.0433 28.2351 32.9498 28.3178 32.7772L27.9438 32.5973H27.5302C27.5267 34.7298 25.8005 36.4524 23.6716 36.456C21.5391 36.4524 19.8166 34.7263 19.813 32.5973C19.813 31.5293 20.2445 30.5691 20.9421 29.8679L20.6509 29.5766L20.3596 29.8679L21.8699 31.3783L22.1648 31.0834L21.8735 30.7921L22.1648 31.0834L22.4561 30.7921L20.9457 29.2817C20.7839 29.1199 20.5214 29.1199 20.3596 29.2817C19.5109 30.1268 18.9859 31.3027 18.9859 32.5973C18.9859 35.1866 21.0824 37.2831 23.6716 37.2831C26.2608 37.2831 28.3574 35.1866 28.3574 32.5973C28.3574 32.4032 28.2243 32.2377 28.0373 32.1946C27.8503 32.1514 27.6561 32.2449 27.5734 32.4175L27.9474 32.5973H28.361C28.361 31.3027 27.8359 30.1304 26.9872 29.2817L19.6943 21.9852C19.6152 21.9061 19.5109 21.8629 19.403 21.8629C19.2915 21.8629 19.1872 21.9061 19.1117 21.9852L17.6013 23.4956C17.4395 23.6574 17.4395 23.9199 17.6013 24.0817L24.8943 31.3783C25.2215 31.7091 25.3977 32.137 25.4013 32.5973C25.4013 32.7052 25.4445 32.8131 25.5236 32.8886C25.6027 32.9641 25.707 33.0109 25.8149 33.0109V32.5973H25.4013C25.4013 33.5467 24.6282 34.3163 23.6788 34.3199C22.7294 34.3199 21.9563 33.5467 21.9563 32.5973C21.9563 32.1334 22.1325 31.7055 22.4597 31.3783C22.6215 31.2164 22.6215 30.9539 22.4597 30.7921L22.1648 31.0834Z" fill="#3DD2CC"/>
<path id="Vector_10" d="M23.6716 26.5522L23.9629 26.2609L19.982 22.28L23.6716 18.594L27.3612 22.28L23.3803 26.2609L23.6716 26.5522L23.9629 26.2609L23.6716 26.5522L23.9629 26.8435L28.2351 22.5713C28.3106 22.4958 28.3574 22.3879 28.3574 22.28C28.3574 22.1721 28.3142 22.0642 28.2351 21.9887L23.9629 17.7129C23.8011 17.5511 23.5385 17.5511 23.3767 17.7129L19.1045 21.9851C18.9427 22.1469 18.9427 22.4095 19.1045 22.5713L23.3803 26.8471C23.4558 26.9226 23.5637 26.9693 23.6716 26.9693C23.7795 26.9693 23.8874 26.9262 23.9629 26.8471L23.6716 26.5522Z" fill="#3DD2CC"/>
</g>
</g>
<defs>
<filter id="filter0_d_16_2" x="0.00012207" y="0.605103" width="47.3534" height="47.3535" filterUnits="userSpaceOnUse" color-interpolation-filters="sRGB">
<feFlood flood-opacity="0" result="BackgroundImageFix"/>
<feColorMatrix in="SourceAlpha" type="matrix" values="0 0 0 0 0 0 0 0 0 0 0 0 0 0 0 0 0 0 127 0" result="hardAlpha"/>
<feOffset dy="2"/>
<feGaussianBlur stdDeviation="3"/>
<feComposite in2="hardAlpha" operator="out"/>
<feColorMatrix type="matrix" values="0 0 0 0 0.239216 0 0 0 0 0.823529 0 0 0 0 0.8 0 0 0 0.45 0"/>
<feBlend mode="normal" in2="BackgroundImageFix" result="effect1_dropShadow_16_2"/>
<feBlend mode="normal" in="SourceGraphic" in2="effect1_dropShadow_16_2" result="shape"/>
</filter>
</defs>
</svg>
